<svg viewBox="0 0 1865 1130.96" xmlns="http://www.w3.org/2000/svg" xmlns:xlink="http://www.w3.org/1999/xlink" width="1865.000000" height="1130.957520" fill="none" customFrame="#000000">
	<g id="Group 1597880580">
		<g id="Group 1597880565">
			<path id="Vector 4780" d="M1031.79 323.457L1108 411.837L791 486.457" stroke="rgb(32,32,39)" stroke-linecap="round" stroke-width="1.000000" />
			<path id="Vector" d="M262.063 294.173C262.063 284.386 298.602 0 298.602 0L402.19 254.969L572.775 16.3679L490.576 300.754L749.546 241.919L502.738 395.53L691.618 575.296L463.106 483.782L527.062 758.381L377.761 529.567L210.217 791.061L262.011 483.782L0 503.413L237.634 395.53L0 209.183L262.063 294.173Z" fill="rgb(188,236,48)" fill-rule="nonzero" transform="matrix(-0.316421,0.948619,-0.963363,-0.268199,1865,212.162)" />
			<path id="Vector" d="M298.602 0L402.19 254.969L572.775 16.3679L490.576 300.754L749.546 241.919L502.738 395.53L691.618 575.296L463.106 483.782L527.062 758.381L377.761 529.567L210.217 791.061L262.011 483.782L0 503.413L237.634 395.53L0 209.183L262.063 294.173C262.063 284.386 298.602 0 298.602 0Z" fill-rule="nonzero" stroke="rgb(32,32,39)" stroke-linecap="round" stroke-width="1.000000" transform="matrix(-0.316421,0.948619,-0.963363,-0.268199,1865,212.162)" />
			<path id="Vector 4781" d="M1022.08 587.457L1146 587.457L1004 766.457" stroke="rgb(32,32,39)" stroke-linecap="round" stroke-width="1.000000" />
			<path id="Vector 4782" d="M1162 791.502L1275.76 712.457L1381.88 1130.46" stroke="rgb(32,32,39)" stroke-linecap="round" stroke-width="1.000000" />
			<path id="Vector 4788" d="M1240.16 801.457L1184 860.222L1264 927.457L1240.16 801.457Z" fill="rgb(188,236,48)" fill-rule="evenodd" />
			<path id="Vector 4788" d="M1240.16 801.457L1264 927.457L1184 860.222L1240.16 801.457Z" fill-rule="evenodd" stroke="rgb(32,32,39)" stroke-linecap="round" stroke-width="1.000000" />
			<path id="Vector 4791" d="M1282 996.457L1316 1120.46" stroke="rgb(32,32,39)" stroke-linecap="round" stroke-width="1.000000" />
		</g>
		<path id="Star 2" d="M36.1976 448.259L57 455.957L36.1976 463.654L28.5 484.457L20.8024 463.654L3.55271e-15 455.957L20.8024 448.259L28.5 427.457L36.1976 448.259Z" fill="rgb(188,236,48)" fill-rule="evenodd" />
		<path id="Star 2" d="M36.1976 448.259L29.0331 428.898L28.5 427.457L27.9669 428.898L20.8024 448.259L1.44077 455.424L3.55271e-15 455.957L1.44077 456.49L20.8024 463.654L27.9669 483.016L28.5 484.457L29.0331 483.016L36.1976 463.654L55.5592 456.49L57 455.957L55.5592 455.424L36.1976 448.259ZM54.1185 455.957L35.8505 449.197L35.4193 449.037L28.5 430.338L21.5807 449.037L2.88154 455.957L21.5807 462.876L28.5 481.575L35.4193 462.876L54.1185 455.957Z" fill="rgb(32,32,39)" fill-rule="evenodd" />
		<path id="Star 5" d="M908.497 884.96L922 889.957L908.497 894.953L903.5 908.457L898.503 894.953L885 889.957L898.503 884.96L903.5 871.457L908.497 884.96Z" fill="rgb(188,236,48)" fill-rule="evenodd" />
		<path id="Star 5" d="M908.497 884.96L904.033 872.898L903.5 871.457L902.967 872.898L898.503 884.96L886.441 889.424L885 889.957L886.441 890.49L898.503 894.953L902.967 907.016L903.5 908.457L904.033 907.016L908.497 894.953L920.559 890.49L922 889.957L920.559 889.424L908.497 884.96ZM919.118 889.957L908.15 885.898L907.718 885.738L903.5 874.338L899.282 885.738L887.882 889.957L899.282 894.175L903.5 905.575L907.718 894.175L919.118 889.957Z" fill="rgb(32,32,39)" fill-rule="evenodd" />
		<path id="Star 3" d="M115.227 415.23L111.033 403.898L110.5 402.457L109.967 403.898L105.773 415.23L94.4408 419.424L93 419.957L94.4408 420.49L105.773 424.683L109.967 436.016L110.5 437.457L111.033 436.016L115.227 424.683L126.559 420.49L128 419.957L126.559 419.424L115.227 415.23ZM125.118 419.957L114.88 416.168L114.448 416.008L110.5 405.338L106.552 416.008L95.8815 419.957L106.552 423.905L110.5 434.575L114.448 423.905L125.118 419.957Z" fill="rgb(32,32,39)" fill-rule="evenodd" />
		<path id="Star 4" d="M1002.71 931.748L992.033 902.898L991.5 901.457L990.967 902.898L980.291 931.748L951.441 942.424L950 942.957L951.441 943.49L980.291 954.166L990.967 983.016L991.5 984.457L992.033 983.016L1002.71 954.166L1031.56 943.49L1033 942.957L1031.56 942.424L1002.71 931.748ZM1030.12 942.957L1002.36 932.686L1001.93 932.526L991.5 904.338L981.07 932.526L952.882 942.957L981.07 953.387L991.5 981.575L1001.93 953.387L1030.12 942.957Z" fill="rgb(32,32,39)" fill-rule="evenodd" />
	</g>
</svg>
